<svg xmlns="http://www.w3.org/2000/svg" viewBox="0 9.5 256.75 36" data-asc="0.9" width="256.75" height="36"><defs/><g fill="#ffffff"><g transform="translate(0, 0)"><path d="M8.20 45.50Q4.20 45.50 2.10 43.23Q0 40.95 0 36.70L0 18.30Q0 14.05 2.10 11.77Q4.20 9.50 8.20 9.50Q12.20 9.50 14.30 11.77Q16.40 14.05 16.40 18.30L16.40 21.30L11.20 21.30L11.20 17.95Q11.20 14.50 8.35 14.50Q5.50 14.50 5.50 17.95L5.50 37.10Q5.50 40.50 8.35 40.50Q11.20 40.50 11.20 37.10L11.20 30.25L8.45 30.25L8.45 25.25L16.40 25.25L16.40 36.70Q16.40 40.95 14.30 43.23Q12.20 45.50 8.20 45.50ZM19.95 10L34.95 10L34.95 15L25.45 15L25.45 24.25L33 24.25L33 29.25L25.45 29.25L25.45 40L34.95 40L34.95 45L19.95 45L19.95 10ZM38.10 10L45.00 10L50.35 30.95L50.45 30.95L50.45 10L55.35 10L55.35 45L49.70 45L43.10 19.45L43.00 19.45L43.00 45L38.10 45L38.10 10ZM59.45 10L64.95 10L64.95 24.75L71.95 10L77.45 10L70.90 22.85L77.55 45L71.80 45L67.15 29.40L64.95 33.85L64.95 45L59.45 45L59.45 10ZM84.40 10L91.85 10L97.55 45L92.05 45L91.05 38.05L91.05 38.15L84.80 38.15L83.80 45L78.70 45L84.40 10M90.40 33.40L87.95 16.10L87.85 16.10L85.45 33.40L90.40 33.40ZM100.20 10L105.70 10L105.70 45L100.20 45L100.20 10ZM122.10 15L116.35 15L116.35 10L133.35 10L133.35 15L127.60 15L127.60 45L122.10 45L122.10 15ZM140.25 10L147.70 10L153.40 45L147.90 45L146.90 38.05L146.90 38.15L140.65 38.15L139.65 45L134.55 45L140.25 10M146.25 33.40L143.80 16.10L143.70 16.10L141.30 33.40L146.25 33.40ZM163.80 45.50Q159.85 45.50 157.78 43.25Q155.70 41 155.70 36.90L155.70 18.10Q155.70 14 157.78 11.75Q159.85 9.50 163.80 9.50Q167.75 9.50 169.82 11.75Q171.90 14 171.90 18.10L171.90 21.80L166.70 21.80L166.70 17.75Q166.70 14.50 163.95 14.50Q161.20 14.50 161.20 17.75L161.20 37.30Q161.20 40.50 163.95 40.50Q166.70 40.50 166.70 37.30L166.70 31.95L171.90 31.95L171.90 36.90Q171.90 41 169.82 43.25Q167.75 45.50 163.80 45.50ZM179.50 15L173.75 15L173.75 10L190.75 10L190.75 15L185 15L185 45L179.50 45L179.50 15ZM193.40 10L198.90 10L198.90 45L193.40 45L193.40 10ZM210.75 45.50Q206.80 45.50 204.72 43.25Q202.65 41 202.65 36.90L202.65 18.10Q202.65 14 204.72 11.75Q206.80 9.50 210.75 9.50Q214.70 9.50 216.77 11.75Q218.85 14 218.85 18.10L218.85 21.80L213.65 21.80L213.65 17.75Q213.65 14.50 210.90 14.50Q208.15 14.50 208.15 17.75L208.15 37.30Q208.15 40.50 210.90 40.50Q213.65 40.50 213.65 37.30L213.65 31.95L218.85 31.95L218.85 36.90Q218.85 41 216.77 43.25Q214.70 45.50 210.75 45.50ZM226.40 10L233.85 10L239.55 45L234.05 45L233.05 38.05L233.05 38.15L226.80 38.15L225.80 45L220.70 45L226.40 10M232.40 33.40L229.95 16.10L229.85 16.10L227.45 33.40L232.40 33.40ZM242.20 10L247.70 10L247.70 40L256.75 40L256.75 45L242.20 45L242.20 10Z"/></g></g></svg>